<svg version="1.1" id="Layer_1" xmlns="http://www.w3.org/2000/svg" xmlns:xlink="http://www.w3.org/1999/xlink" x="0px" y="0px"
	 width="100%" viewBox="0 0 169 169" enable-background="new 0 0 169 169" xml:space="preserve">
<path fill="#000000" opacity="1.000000" stroke="none" 
	d="
M77.000000,1.000000 
	C107.958855,1.000000 138.917709,1.000000 169.938278,1.000000 
	C169.938278,57.217350 169.938278,113.434784 169.938278,170.000000 
	C147.646973,170.000000 125.292145,170.000000 102.479568,169.635803 
	C104.063499,166.516357 106.105186,163.761124 108.456314,160.854950 
	C110.661064,157.430801 112.556358,154.157562 114.608879,150.834198 
	C114.766106,150.784103 114.877930,150.473587 115.157867,150.300262 
	C120.009277,144.117950 124.580757,138.108948 129.511383,132.064850 
	C133.959274,126.370743 138.048004,120.711716 142.454300,114.902634 
	C144.520218,112.645088 146.350830,110.597244 147.954666,108.384964 
	C148.320572,107.880249 147.903030,106.807564 147.931686,105.765205 
	C148.017288,105.534119 148.156738,105.061394 148.378448,104.995865 
	C148.883926,104.751686 149.036835,104.495064 149.419922,104.093521 
	C153.234970,99.934662 156.712875,95.862381 160.115997,91.728539 
	C160.596634,91.144684 160.933563,90.269356 160.963776,89.514008 
	C161.373642,79.268829 161.952225,69.022118 162.000076,58.773495 
	C162.035492,51.193298 161.323227,43.611225 161.014236,36.027126 
	C160.860962,32.265514 159.024002,30.778933 155.448975,31.860828 
	C150.254410,33.432842 145.115463,35.188545 139.610077,36.920681 
	C136.177124,38.021667 133.086884,39.067890 129.616745,40.057549 
	C126.488197,41.379990 123.739563,42.758995 120.607880,44.062252 
	C113.513863,47.103867 112.779388,46.973675 108.011200,41.615501 
	C107.609734,41.122276 107.264915,40.845097 106.906662,40.582207 
	C106.893219,40.596493 106.912521,40.565453 106.699234,40.255436 
	C98.750748,30.659502 93.654366,19.364742 84.333908,10.869381 
	C82.440239,8.687769 80.758270,6.761228 78.975952,4.572731 
	C78.305473,3.845271 77.735344,3.379766 76.991241,2.548335 
	C76.878181,1.788272 76.939095,1.394136 77.000000,1.000000 
z"/>
<path fill="#000000" opacity="1.000000" stroke="none" 
	d="
M93.000000,170.000000 
	C62.374401,170.000000 31.748804,170.000000 1.061603,170.000000 
	C1.061603,113.783234 1.061603,57.566383 1.061603,1.000000 
	C22.686310,1.000000 44.374496,1.000000 66.842468,1.267648 
	C66.435577,3.024337 65.248901,4.513379 63.915001,6.317170 
	C60.812424,10.702181 57.857059,14.772442 54.596161,19.004730 
	C47.808903,27.423189 41.327175,35.679623 34.539719,44.121643 
	C32.793060,46.929893 31.352123,49.552559 29.762676,52.485245 
	C26.706457,56.492229 23.798752,60.189194 20.895338,63.901054 
	C20.899630,63.915951 20.871943,63.922001 20.562389,64.070114 
	C18.188171,67.198578 16.123508,70.178940 13.698591,73.167145 
	C12.530001,74.513184 11.721663,75.851379 10.610361,77.245476 
	C10.238194,78.099060 10.168990,78.896729 9.758425,79.881256 
	C9.330144,81.068306 9.243225,82.068512 9.081646,83.362625 
	C9.057240,84.054512 9.107494,84.452492 8.992705,85.263794 
	C8.605203,92.114120 8.382743,98.551147 8.085451,105.452286 
	C8.056600,115.638367 8.102581,125.360336 8.123427,135.340607 
	C8.395956,135.738281 8.693620,135.877655 8.955224,136.023285 
	C8.919164,136.029510 8.933074,136.101379 8.978306,136.517593 
	C12.346880,136.903305 15.670222,136.872818 19.362919,136.912125 
	C20.537447,136.341492 21.342621,135.701050 22.397758,135.119202 
	C23.116245,135.172516 23.584766,135.167206 24.376534,135.005829 
	C26.149630,134.285812 27.599480,133.721878 29.347549,133.091492 
	C30.114227,132.729996 30.582682,132.434952 31.451988,132.086761 
	C35.846889,132.148071 38.902611,130.500595 41.404793,127.229370 
	C44.188179,126.912941 46.611782,126.505325 49.439278,126.023033 
	C53.665924,124.424919 57.646057,123.881348 60.542576,127.290497 
	C64.429375,131.865189 67.787849,136.888794 71.590790,141.999939 
	C73.194214,144.219238 74.579987,146.158295 76.116379,148.411606 
	C77.766594,150.295380 79.384125,151.769775 80.741875,153.453644 
	C83.827461,157.280319 86.785347,161.209961 89.873238,165.467422 
	C90.967552,167.224731 91.983780,168.612366 93.000000,170.000000 
z"/>
<path fill="#51DEB6" opacity="1.000000" stroke="none" 
	d="
M93.437500,170.000000 
	C91.983780,168.612366 90.967552,167.224731 90.130371,165.397079 
	C89.541161,161.954956 88.170517,158.964935 88.109901,155.948608 
	C87.859993,143.514099 87.830574,131.066635 88.179512,118.636841 
	C88.239204,116.510353 90.538879,114.446754 91.884323,112.387665 
	C91.964882,112.421234 91.940376,112.593636 91.915710,112.856903 
	C92.311974,113.386383 92.732903,113.652588 93.530167,113.936256 
	C96.255814,113.926834 98.605125,113.899940 100.940819,114.251488 
	C96.084053,118.025703 97.000481,123.121391 96.999840,127.944725 
	C96.998192,140.364670 96.999283,152.784607 96.999283,165.636292 
	C98.218918,165.747681 99.649704,165.878357 100.934540,166.329834 
	C100.525734,167.767105 100.262863,168.883545 100.000000,170.000000 
	C97.958336,170.000000 95.916664,170.000000 93.437500,170.000000 
z"/>
<path fill="#49D3C4" opacity="1.000000" stroke="none" 
	d="
M64.062218,6.002420 
	C65.248901,4.513379 66.435577,3.024337 67.311127,1.267648 
	C69.370560,1.000000 71.741112,1.000000 74.638245,1.309528 
	C75.831619,2.050790 76.498413,2.482525 77.165215,2.914260 
	C77.735344,3.379766 78.305473,3.845271 79.009842,4.920970 
	C79.764374,7.022003 80.384666,8.512842 80.755829,10.292004 
	C80.004692,13.146081 79.107452,15.705981 79.069344,18.278608 
	C78.907333,29.215006 79.088768,40.156670 78.904846,51.092377 
	C78.876877,52.755356 77.585548,54.397091 76.534515,55.877403 
	C74.459320,55.420521 72.728149,55.134888 71.117104,54.495903 
	C71.824730,51.976070 72.893112,49.815670 72.920578,47.642113 
	C73.081764,34.888268 73.006477,22.131351 72.997383,9.375480 
	C72.992271,2.218964 72.965912,2.224334 66.471817,5.539999 
	C65.772270,5.897161 64.870293,5.857831 64.062218,6.002420 
z"/>
<path fill="#92F1D0" opacity="1.000000" stroke="none" 
	d="
M100.333328,170.000000 
	C100.262863,168.883545 100.525734,167.767105 101.117737,166.065338 
	C102.641022,164.018295 103.835190,162.556564 105.417252,161.048920 
	C106.585716,161.003967 107.366295,161.004913 108.146866,161.005875 
	C106.105186,163.761124 104.063499,166.516357 102.010910,169.635803 
	C101.555557,170.000000 101.111107,170.000000 100.333328,170.000000 
z"/>
<path fill="#52DEB7" opacity="1.000000" stroke="none" 
	d="
M76.991241,2.548334 
	C76.498413,2.482525 75.831619,2.050790 75.082413,1.309528 
	C75.444443,1.000000 75.888893,1.000000 76.666672,1.000000 
	C76.939095,1.394136 76.878181,1.788272 76.991241,2.548334 
z"/>
<path fill="#55E5A4" opacity="1.000000" stroke="none" 
	d="
M120.990929,44.138000 
	C123.739563,42.758995 126.488197,41.379990 129.597351,40.426147 
	C129.761276,41.475685 129.717239,42.526909 129.345032,42.659935 
	C124.361176,44.441166 124.979462,48.566292 124.984535,52.536514 
	C125.015488,76.762535 124.973404,100.988693 125.043739,125.214546 
	C125.050339,127.485123 125.668823,129.753922 125.998383,132.394867 
	C123.140297,136.867935 120.211052,140.919830 117.471573,145.096191 
	C116.389435,146.745926 115.729881,148.672867 114.877930,150.473587 
	C114.877930,150.473587 114.766106,150.784103 114.245087,150.551300 
	C113.149277,148.172318 112.149368,146.041824 112.069496,143.877396 
	C111.591354,130.920135 111.325005,117.955032 111.008698,104.618393 
	C110.679558,101.496910 110.329376,98.749580 110.303177,95.778992 
	C111.084526,93.692818 111.919167,91.833694 111.937965,89.966362 
	C112.058540,77.988487 112.033951,66.008636 111.974678,54.029846 
	C111.961349,51.335697 112.170807,49.441910 115.533226,48.590508 
	C117.596008,48.068184 119.187691,45.685360 120.990929,44.138000 
z"/>
<path fill="#58E99B" opacity="1.000000" stroke="none" 
	d="
M126.003220,132.023529 
	C125.668823,129.753922 125.050339,127.485123 125.043739,125.214546 
	C124.973404,100.988693 125.015488,76.762535 124.984535,52.536514 
	C124.979462,48.566292 124.361176,44.441166 129.345032,42.659935 
	C129.717239,42.526909 129.761276,41.475685 129.977264,40.482712 
	C133.086884,39.067890 136.177124,38.021667 139.622589,37.310173 
	C139.988922,38.424217 140.000031,39.203537 139.658997,40.047218 
	C138.428314,41.235676 136.786224,42.358307 136.784073,43.484081 
	C136.741821,65.528717 136.884613,87.573746 137.010178,109.618584 
	C137.021042,111.525093 137.175552,113.430779 137.250244,115.052681 
	C139.300766,115.052681 140.718750,115.052681 142.136734,115.052689 
	C138.048004,120.711716 133.959274,126.370743 129.118866,132.039566 
	C127.579208,132.040756 126.791214,132.032150 126.003220,132.023529 
z"/>
<path fill="#60F18C" opacity="1.000000" stroke="none" 
	d="
M140.011139,39.982857 
	C140.000031,39.203537 139.988922,38.424217 139.965302,37.255402 
	C145.115463,35.188545 150.254410,33.432842 155.448975,31.860828 
	C159.024002,30.778933 160.860962,32.265514 161.014236,36.027126 
	C161.323227,43.611225 162.035492,51.193298 162.000076,58.773495 
	C161.952225,69.022118 161.373642,79.268829 160.963776,89.514008 
	C160.933563,90.269356 160.596634,91.144684 160.115997,91.728539 
	C156.712875,95.862381 153.234970,99.934662 149.405548,103.639374 
	C148.686996,95.820122 148.145416,88.390732 148.045410,80.955399 
	C147.880341,68.682457 148.068008,56.404922 147.931305,44.131283 
	C147.909500,42.173717 146.971497,40.226364 146.457047,38.274284 
	C144.308411,38.843811 142.159775,39.413334 140.011139,39.982857 
z"/>
<path fill="#5AEC93" opacity="1.000000" stroke="none" 
	d="
M139.658997,40.047218 
	C142.159775,39.413334 144.308411,38.843811 146.457047,38.274284 
	C146.971497,40.226364 147.909500,42.173717 147.931305,44.131283 
	C148.068008,56.404922 147.880341,68.682457 148.045410,80.955399 
	C148.145416,88.390732 148.686996,95.820122 149.044540,103.706322 
	C149.036835,104.495064 148.883926,104.751686 148.171631,105.004089 
	C147.519577,105.233627 147.296082,105.389427 147.072601,105.545227 
	C147.330429,105.695587 147.588242,105.845940 147.846069,105.996292 
	C147.903030,106.807564 148.320572,107.880249 147.954666,108.384964 
	C146.350830,110.597244 144.520218,112.645088 142.454300,114.902626 
	C140.718750,115.052681 139.300766,115.052681 137.250244,115.052681 
	C137.175552,113.430779 137.021042,111.525093 137.010178,109.618584 
	C136.884613,87.573746 136.741821,65.528717 136.784073,43.484081 
	C136.786224,42.358307 138.428314,41.235676 139.658997,40.047218 
z"/>
<path fill="#52DEB7" opacity="1.000000" stroke="none" 
	d="
M109.979195,96.002258 
	C110.329376,98.749580 110.679558,101.496910 110.729477,104.491806 
	C109.654869,104.490837 108.880508,104.242287 108.114639,103.657547 
	C108.680550,102.352028 109.237984,101.382690 109.440903,101.029823 
	C105.656021,95.575310 102.927452,89.372810 98.257172,85.530327 
	C93.261696,81.420288 91.634460,75.193687 86.857773,71.223022 
	C86.004799,70.513977 86.238091,68.498146 86.137482,66.733032 
	C86.870377,64.000069 87.872803,61.628998 87.923256,59.237843 
	C88.115746,50.116463 87.806763,40.983063 88.066574,31.865023 
	C88.256233,25.209101 89.640213,18.452370 84.192284,13.001788 
	C83.993027,12.802436 84.025269,12.371701 84.103790,11.821046 
	C84.353851,11.437013 84.449738,11.280732 84.545616,11.124452 
	C93.654366,19.364742 98.750748,30.659502 106.309128,40.290718 
	C104.383659,39.925133 102.635017,39.214241 100.675758,38.417725 
	C100.393112,39.400448 100.075249,40.005161 100.064911,40.615082 
	C99.832001,54.363338 99.603851,68.111916 99.484459,81.861382 
	C99.475288,82.916870 100.056709,84.157890 100.741783,85.007874 
	C103.744911,88.733932 106.887306,92.347733 109.979195,96.002258 
z"/>
<path fill="#53E2AD" opacity="1.000000" stroke="none" 
	d="
M110.303177,95.778992 
	C106.887306,92.347733 103.744911,88.733932 100.741783,85.007874 
	C100.056709,84.157890 99.475288,82.916870 99.484459,81.861382 
	C99.603851,68.111916 99.832001,54.363338 100.064911,40.615082 
	C100.075249,40.005161 100.393112,39.400448 100.675758,38.417725 
	C102.635017,39.214241 104.383659,39.925133 106.522415,40.600739 
	C106.912521,40.565453 106.893219,40.596493 106.735947,40.875122 
	C106.710922,41.829517 106.843155,42.505287 106.975395,43.181053 
	C107.339546,42.731216 107.703697,42.281380 108.067848,41.831543 
	C112.779388,46.973675 113.513863,47.103867 120.607880,44.062256 
	C119.187691,45.685360 117.596008,48.068184 115.533226,48.590508 
	C112.170807,49.441910 111.961349,51.335697 111.974678,54.029846 
	C112.033951,66.008636 112.058540,77.988487 111.937965,89.966362 
	C111.919167,91.833694 111.084526,93.692818 110.303177,95.778992 
z"/>
<path fill="#53E2AD" opacity="1.000000" stroke="none" 
	d="
M108.106155,103.993729 
	C108.880508,104.242287 109.654869,104.490837 110.708435,104.865974 
	C111.325005,117.955032 111.591354,130.920135 112.069496,143.877396 
	C112.149368,146.041824 113.149277,148.172318 114.087860,150.601395 
	C112.556358,154.157562 110.661064,157.430801 108.456314,160.854950 
	C107.366295,161.004913 106.585716,161.003967 105.560699,160.700287 
	C105.544739,156.716995 105.939751,153.037811 105.970200,149.355606 
	C106.057983,138.739990 105.931740,128.122482 106.039459,117.507256 
	C106.070351,114.464088 105.243576,112.665428 102.003799,112.649452 
	C104.124718,109.558395 106.115433,106.776062 108.106155,103.993729 
z"/>
<path fill="#53E2AD" opacity="1.000000" stroke="none" 
	d="
M125.998383,132.394867 
	C126.791214,132.032150 127.579208,132.040756 128.759720,132.074646 
	C124.580757,138.108948 120.009277,144.117950 115.157867,150.300262 
	C115.729881,148.672867 116.389435,146.745926 117.471573,145.096191 
	C120.211052,140.919830 123.140297,136.867935 125.998383,132.394867 
z"/>
<path fill="#52DEB7" opacity="1.000000" stroke="none" 
	d="
M81.004959,10.003682 
	C80.384666,8.512842 79.764374,7.022003 79.110199,5.182925 
	C80.758270,6.761228 82.440239,8.687769 84.333908,10.869381 
	C84.449738,11.280732 84.353851,11.437013 83.811241,11.738989 
	C82.577995,11.257684 81.791481,10.630683 81.004959,10.003682 
z"/>
<path fill="#52DEB7" opacity="1.000000" stroke="none" 
	d="
M108.011200,41.615501 
	C107.703697,42.281380 107.339546,42.731216 106.975395,43.181053 
	C106.843155,42.505287 106.710922,41.829517 106.749390,40.860832 
	C107.264915,40.845097 107.609734,41.122276 108.011200,41.615501 
z"/>
<path fill="#60F18C" opacity="1.000000" stroke="none" 
	d="
M147.931671,105.765205 
	C147.588242,105.845940 147.330429,105.695587 147.072601,105.545227 
	C147.296082,105.389427 147.519577,105.233627 147.949905,105.069611 
	C148.156738,105.061394 148.017288,105.534119 147.931671,105.765205 
z"/>
<path fill="#2FA5ED" opacity="1.000000" stroke="none" 
	d="
M20.891048,63.886162 
	C23.798752,60.189194 26.706457,56.492229 30.054846,52.537460 
	C31.855410,52.107876 33.215294,51.936104 35.149868,51.691734 
	C35.149868,77.402267 35.149868,102.678490 35.149868,126.510422 
	C33.483776,128.798737 32.267452,130.469315 31.051132,132.139893 
	C30.582682,132.434952 30.114227,132.729996 29.266735,132.702240 
	C28.258572,129.532578 27.110643,126.690437 27.084707,123.838097 
	C26.919064,105.622505 27.011616,87.404648 26.983353,69.187584 
	C26.980408,67.288628 26.742950,65.390030 26.614445,63.493404 
	C24.306057,63.651814 22.598553,63.768986 20.891048,63.886162 
z"/>
<path fill="#35AEE7" opacity="1.000000" stroke="none" 
	d="
M31.451984,132.086761 
	C32.267452,130.469315 33.483776,128.798737 35.149868,126.510422 
	C35.149868,102.678490 35.149868,77.402267 35.149868,51.691734 
	C33.215294,51.936104 31.855410,52.107876 30.203358,52.227440 
	C31.352123,49.552559 32.793060,46.929893 34.855377,44.175884 
	C37.315216,43.035427 39.153675,42.026314 40.994591,41.483849 
	C40.998119,67.169861 40.968357,92.389320 41.043865,117.608467 
	C41.052197,120.391411 41.662846,123.172554 41.797211,126.118553 
	C41.415192,126.567780 41.230099,126.852982 41.045006,127.138184 
	C38.902611,130.500595 35.846889,132.148071 31.451984,132.086761 
z"/>
<path fill="#2B9DF3" opacity="1.000000" stroke="none" 
	d="
M20.895340,63.901054 
	C22.598553,63.768986 24.306057,63.651814 26.614445,63.493404 
	C26.742950,65.390030 26.980408,67.288628 26.983353,69.187584 
	C27.011616,87.404648 26.919064,105.622505 27.084707,123.838097 
	C27.110643,126.690437 28.258572,129.532578 28.968513,132.768692 
	C27.599480,133.721878 26.149630,134.285812 24.334702,134.617798 
	C18.697012,130.781265 19.976595,125.283882 20.032660,120.246223 
	C20.241623,101.470688 20.581312,82.696617 20.871943,63.922001 
	C20.871943,63.922001 20.899630,63.915951 20.895340,63.901054 
z"/>
<path fill="#4EDBBC" opacity="1.000000" stroke="none" 
	d="
M91.803772,112.354095 
	C90.538879,114.446754 88.239204,116.510353 88.179512,118.636841 
	C87.830574,131.066635 87.859993,143.514099 88.109901,155.948608 
	C88.170517,158.964935 89.541161,161.954956 90.052277,165.027405 
	C86.785347,161.209961 83.827461,157.280319 80.741875,153.453644 
	C79.384125,151.769775 77.766594,150.295380 76.252609,148.184860 
	C76.515175,147.429901 76.792145,147.215958 77.447052,146.969589 
	C78.882965,144.794739 80.787720,142.678497 80.854927,140.505432 
	C81.176414,130.110855 80.985397,119.700836 81.007156,109.296371 
	C81.016472,104.844246 81.526680,100.353493 77.984467,96.666679 
	C77.214828,95.865608 77.369141,94.176819 77.410995,93.045181 
	C79.996483,95.798721 82.472519,98.256622 84.490662,101.045830 
	C87.118500,104.677681 89.382942,108.572464 91.803772,112.354095 
z"/>
<path fill="#2A97F9" opacity="1.000000" stroke="none" 
	d="
M20.562389,64.070114 
	C20.581312,82.696617 20.241623,101.470688 20.032660,120.246223 
	C19.976595,125.283882 18.697012,130.781265 24.011456,134.773895 
	C23.584766,135.167206 23.116245,135.172516 22.056786,135.116669 
	C20.641752,135.651138 19.817659,136.246719 18.993565,136.842316 
	C15.670222,136.872818 12.346880,136.903305 9.224257,136.456512 
	C9.594004,135.979309 9.763031,135.979401 10.261902,136.019287 
	C11.879640,135.378967 14.288512,134.702911 14.290981,134.018188 
	C14.348155,118.165436 14.186610,102.310974 13.901799,86.459770 
	C13.880637,85.282028 12.627120,84.126427 11.970292,82.590027 
	C12.682334,79.199448 13.370588,76.179375 14.058844,73.159294 
	C16.123508,70.178940 18.188171,67.198578 20.562389,64.070114 
z"/>
<path fill="#46CDCB" opacity="1.000000" stroke="none" 
	d="
M63.915001,6.317170 
	C64.870293,5.857831 65.772270,5.897161 66.471817,5.539999 
	C72.965912,2.224334 72.992271,2.218964 72.997383,9.375480 
	C73.006477,22.131351 73.081764,34.888268 72.920578,47.642113 
	C72.893112,49.815670 71.824730,51.976070 70.733780,54.572594 
	C67.206245,58.360989 64.182159,61.719345 60.990158,64.873093 
	C60.882084,63.779682 60.941929,62.890869 61.328934,61.906147 
	C63.437019,58.444080 66.573112,55.148918 66.753853,51.698933 
	C67.386223,39.627953 67.034058,27.503328 66.957169,15.399707 
	C66.946846,13.774133 66.371330,12.152147 66.057541,10.528500 
	C65.513702,10.365699 64.969864,10.202897 64.426025,10.040096 
	C62.284081,13.021613 60.142132,16.003130 57.744492,19.111807 
	C56.990742,19.521746 56.492680,19.804523 55.779839,19.910118 
	C55.343941,19.436192 55.122818,19.139448 54.901695,18.842703 
	C57.857059,14.772442 60.812424,10.702181 63.915001,6.317170 
z"/>
<path fill="#2190FC" opacity="1.000000" stroke="none" 
	d="
M11.946507,82.960533 
	C12.627120,84.126427 13.880637,85.282028 13.901799,86.459770 
	C14.186610,102.310974 14.348155,118.165436 14.290981,134.018188 
	C14.288512,134.702911 11.879640,135.378967 10.309457,135.554016 
	C9.971292,125.052673 9.915418,115.056396 9.969913,104.597282 
	C9.772771,97.706459 9.465260,91.278465 9.157748,84.850479 
	C9.107494,84.452492 9.057240,84.054512 9.430902,83.344269 
	C10.552049,83.008186 11.249278,82.984360 11.946507,82.960533 
z"/>
<path fill="#3BB7DF" opacity="1.000000" stroke="none" 
	d="
M54.596161,19.004730 
	C55.122818,19.139448 55.343941,19.436192 55.721172,20.242931 
	C54.583317,22.836142 53.289349,24.919355 51.701569,27.188379 
	C50.270721,30.581907 49.133686,33.789623 47.623459,37.000969 
	C45.164223,38.342129 43.078175,39.679661 40.992130,41.017197 
	C39.153675,42.026314 37.315216,43.035427 35.161102,43.990295 
	C41.327175,35.679623 47.808903,27.423189 54.596161,19.004730 
z"/>
<path fill="#80D8E5" opacity="1.000000" stroke="none" 
	d="
M71.373131,141.719681 
	C67.787849,136.888794 64.429375,131.865189 60.542576,127.290497 
	C57.646057,123.881348 53.665924,124.424919 49.452999,125.652367 
	C49.122730,124.616249 49.182636,123.876137 49.571968,123.120667 
	C51.294186,122.475304 52.686981,121.845284 54.415291,121.221268 
	C55.821743,121.502174 56.892673,121.777084 58.182922,122.300110 
	C61.252232,125.427948 64.102226,128.307663 67.085587,131.468475 
	C68.822487,134.156982 70.426025,136.564377 72.029922,139.307526 
	C72.025352,140.090729 72.020432,140.538208 71.852310,141.166901 
	C71.689110,141.348114 71.373131,141.719681 71.373131,141.719681 
z"/>
<path fill="#C2DBFF" opacity="1.000000" stroke="none" 
	d="
M9.859543,105.060120 
	C9.915418,115.056396 9.971292,125.052673 9.979612,135.514221 
	C9.763031,135.979401 9.594004,135.979309 9.179026,136.040298 
	C8.933074,136.101379 8.919164,136.029510 8.864259,135.828064 
	C8.619915,135.407761 8.399652,135.226318 8.148563,135.082306 
	C8.102581,125.360336 8.056600,115.638367 8.368805,105.466721 
	C9.104509,105.031403 9.482026,105.045761 9.859543,105.060120 
z"/>
<path fill="#93C6FF" opacity="1.000000" stroke="none" 
	d="
M9.969913,104.597282 
	C9.482026,105.045761 9.104509,105.031403 8.443638,105.002609 
	C8.382743,98.551147 8.605203,92.114120 8.992705,85.263794 
	C9.465260,91.278465 9.772771,97.706459 9.969913,104.597282 
z"/>
<path fill="#46A5FF" opacity="1.000000" stroke="none" 
	d="
M11.970293,82.590027 
	C11.249278,82.984360 10.552049,83.008186 9.505564,83.050369 
	C9.243225,82.068512 9.330144,81.068306 9.958228,79.705460 
	C10.637371,78.625076 10.775348,77.907318 10.913324,77.189568 
	C11.721663,75.851379 12.530001,74.513184 13.698591,73.167145 
	C13.370588,76.179375 12.682334,79.199448 11.970293,82.590027 
z"/>
<path fill="#3BB7DF" opacity="1.000000" stroke="none" 
	d="
M49.242538,123.136017 
	C49.182636,123.876137 49.122730,124.616249 49.049103,125.727036 
	C46.611782,126.505325 44.188179,126.912941 41.404793,127.229370 
	C41.230099,126.852982 41.415192,126.567780 42.128624,126.044991 
	C44.438854,124.871872 46.220734,123.936333 48.313465,123.026443 
	C48.830387,123.080070 49.036461,123.108040 49.242538,123.136017 
z"/>
<path fill="#80D8E5" opacity="1.000000" stroke="none" 
	d="
M77.069115,147.002029 
	C76.792145,147.215958 76.515175,147.429901 76.101982,147.870590 
	C74.579987,146.158295 73.194214,144.219238 71.590790,141.999939 
	C71.373131,141.719681 71.689110,141.348114 72.195724,141.226730 
	C74.157928,143.070908 75.613525,145.036469 77.069115,147.002029 
z"/>
<path fill="#2B9DF3" opacity="1.000000" stroke="none" 
	d="
M19.362919,136.912125 
	C19.817659,136.246719 20.641752,135.651138 21.806820,135.058075 
	C21.342621,135.701050 20.537447,136.341492 19.362919,136.912125 
z"/>
<path fill="#2A97F9" opacity="1.000000" stroke="none" 
	d="
M10.610361,77.245476 
	C10.775348,77.907318 10.637371,78.625076 10.299590,79.518616 
	C10.168990,78.896729 10.238194,78.099060 10.610361,77.245476 
z"/>
<path fill="#93C6FF" opacity="1.000000" stroke="none" 
	d="
M8.123427,135.340607 
	C8.399652,135.226318 8.619915,135.407761 8.900319,135.821838 
	C8.693620,135.877655 8.395956,135.738281 8.123427,135.340607 
z"/>
<path fill="#000000" opacity="1.000000" stroke="none" 
	d="
M61.158073,65.077698 
	C64.182159,61.719345 67.206245,58.360989 70.613663,54.925949 
	C72.728149,55.134888 74.459320,55.420521 76.666595,56.194855 
	C78.133896,57.954582 79.077301,59.266666 80.126671,60.487694 
	C82.041267,62.715496 84.018631,64.889351 85.969818,67.085709 
	C86.238091,68.498146 86.004799,70.513977 86.857773,71.223022 
	C91.634460,75.193687 93.261696,81.420288 98.257172,85.530327 
	C102.927452,89.372810 105.656021,95.575310 109.440903,101.029823 
	C109.237984,101.382690 108.680550,102.352028 108.114639,103.657547 
	C106.115433,106.776062 104.124718,109.558395 101.778206,112.715576 
	C101.134842,113.272621 100.978851,113.533493 100.954445,113.873047 
	C98.605125,113.899940 96.255814,113.926834 93.460007,113.713249 
	C92.655800,113.179733 92.298088,112.886688 91.940376,112.593636 
	C91.940376,112.593636 91.964882,112.421234 91.884323,112.387665 
	C89.382942,108.572464 87.118500,104.677681 84.490662,101.045830 
	C82.472519,98.256622 79.996483,95.798721 77.399521,93.067108 
	C77.074951,92.940742 77.112633,92.910202 76.997787,92.625641 
	C75.967041,91.543968 75.051147,90.746857 74.070564,89.715424 
	C74.005882,89.481102 73.841949,89.023407 73.819641,88.680405 
	C69.882744,83.501450 65.968163,78.665489 61.892975,73.507111 
	C61.540936,70.482353 61.349503,67.780022 61.158073,65.077698 
z"/>
<path fill="#50E0AF" opacity="1.000000" stroke="none" 
	d="
M100.940819,114.251495 
	C100.978851,113.533493 101.134842,113.272621 101.648010,113.024307 
	C105.243576,112.665428 106.070351,114.464088 106.039459,117.507256 
	C105.931740,128.122482 106.057983,138.739990 105.970200,149.355606 
	C105.939751,153.037811 105.544739,156.716995 105.172798,160.746201 
	C103.835190,162.556564 102.641022,164.018295 101.263672,165.744537 
	C99.649704,165.878357 98.218918,165.747681 96.999283,165.636292 
	C96.999283,152.784607 96.998192,140.364670 96.999840,127.944725 
	C97.000481,123.121391 96.084053,118.025703 100.940819,114.251495 
z"/>
<path fill="#4EDBBC" opacity="1.000000" stroke="none" 
	d="
M91.915710,112.856903 
	C92.298088,112.886688 92.655800,113.179733 93.083679,113.695786 
	C92.732903,113.652588 92.311974,113.386383 91.915710,112.856903 
z"/>
<path fill="#4AD9BC" opacity="1.000000" stroke="none" 
	d="
M86.137482,66.733032 
	C84.018631,64.889351 82.041267,62.715496 80.126671,60.487694 
	C79.077301,59.266666 78.133896,57.954582 77.010635,56.366104 
	C77.585548,54.397091 78.876877,52.755356 78.904846,51.092377 
	C79.088768,40.156670 78.907333,29.215006 79.069344,18.278608 
	C79.107452,15.705981 80.004692,13.146081 80.755829,10.292004 
	C81.791481,10.630683 82.577995,11.257684 83.657074,11.966742 
	C84.025269,12.371701 83.993027,12.802436 84.192284,13.001788 
	C89.640213,18.452370 88.256233,25.209101 88.066574,31.865023 
	C87.806763,40.983063 88.115746,50.116463 87.923256,59.237843 
	C87.872803,61.628998 86.870377,64.000069 86.137482,66.733032 
z"/>
<path fill="#36B3E1" opacity="1.000000" stroke="none" 
	d="
M48.002613,123.000793 
	C46.220734,123.936333 44.438854,124.871872 42.325554,125.880966 
	C41.662846,123.172554 41.052197,120.391411 41.043865,117.608467 
	C40.968357,92.389320 40.998119,67.169861 40.994591,41.483849 
	C43.078175,39.679661 45.164223,38.342129 47.624313,37.469925 
	C47.998688,63.225922 47.998909,88.516586 47.999477,113.807251 
	C47.999550,116.871765 48.001522,119.936279 48.002613,123.000793 
z"/>
<path fill="#48D4C3" opacity="1.000000" stroke="none" 
	d="
M77.447052,146.969589 
	C75.613525,145.036469 74.157928,143.070908 72.358917,141.045502 
	C72.020432,140.538208 72.025352,140.090729 72.269012,138.974243 
	C72.671806,136.503647 72.970810,134.702591 72.977936,132.900391 
	C73.022552,121.613411 72.986496,110.326141 73.013855,99.039047 
	C73.020905,96.129906 73.091789,93.175591 77.112633,92.910202 
	C77.112633,92.910202 77.074951,92.940742 77.086426,92.918823 
	C77.369141,94.176819 77.214828,95.865608 77.984467,96.666679 
	C81.526680,100.353493 81.016472,104.844246 81.007156,109.296371 
	C80.985397,119.700836 81.176414,130.110855 80.854927,140.505432 
	C80.787720,142.678497 78.882965,144.794739 77.447052,146.969589 
z"/>
<path fill="#3BBED6" opacity="1.000000" stroke="none" 
	d="
M60.990154,64.873093 
	C61.349503,67.780022 61.540936,70.482353 61.870071,73.866852 
	C61.986332,75.028862 61.964893,75.508713 61.589088,76.105988 
	C60.490147,78.455833 59.147007,80.676300 59.102154,82.922691 
	C58.879959,94.050507 59.049194,105.185593 58.953812,116.317024 
	C58.937408,118.231361 58.309196,120.140465 57.963600,122.051987 
	C56.892673,121.777084 55.821743,121.502174 54.326347,120.789383 
	C53.601376,117.895966 53.045425,115.441040 53.039616,112.984818 
	C52.976742,86.403984 53.022739,59.822891 52.956863,33.242077 
	C52.951710,31.161461 52.330353,29.082371 51.995384,27.002569 
	C53.289349,24.919355 54.583317,22.836142 55.935951,20.420115 
	C56.492680,19.804523 56.990742,19.521746 57.987865,19.448931 
	C58.658157,31.292009 58.721313,42.928520 59.086491,54.555542 
	C59.165005,57.055302 60.334717,59.520782 61.001778,62.002056 
	C60.941929,62.890869 60.882084,63.779682 60.990154,64.873093 
z"/>
<path fill="#40C5D0" opacity="1.000000" stroke="none" 
	d="
M61.328930,61.906147 
	C60.334717,59.520782 59.165005,57.055302 59.086491,54.555542 
	C58.721313,42.928520 58.658157,31.292009 58.243561,19.321770 
	C60.142132,16.003130 62.284081,13.021613 64.426025,10.040096 
	C64.969864,10.202897 65.513702,10.365699 66.057541,10.528500 
	C66.371330,12.152147 66.946846,13.774133 66.957169,15.399707 
	C67.034058,27.503328 67.386223,39.627953 66.753853,51.698933 
	C66.573112,55.148918 63.437019,58.444080 61.328930,61.906147 
z"/>
<path fill="#39B9DB" opacity="1.000000" stroke="none" 
	d="
M51.701569,27.188379 
	C52.330353,29.082371 52.951710,31.161461 52.956863,33.242077 
	C53.022739,59.822891 52.976742,86.403984 53.039616,112.984818 
	C53.045425,115.441040 53.601376,117.895966 53.990826,120.783379 
	C52.686981,121.845284 51.294186,122.475304 49.571964,123.120667 
	C49.036461,123.108040 48.830387,123.080070 48.313465,123.026443 
	C48.001522,119.936279 47.999550,116.871765 47.999477,113.807251 
	C47.998909,88.516586 47.998688,63.225922 47.997505,37.466301 
	C49.133686,33.789623 50.270721,30.581907 51.701569,27.188379 
z"/>
<path fill="#3FC5CF" opacity="1.000000" stroke="none" 
	d="
M58.182922,122.300110 
	C58.309196,120.140465 58.937408,118.231361 58.953812,116.317024 
	C59.049194,105.185593 58.879959,94.050507 59.102154,82.922691 
	C59.147007,80.676300 60.490147,78.455833 61.769073,76.397026 
	C63.580322,78.293503 64.934242,79.965767 66.109978,81.755112 
	C67.067413,83.212204 68.455215,84.781715 68.522820,86.350060 
	C68.688637,90.196541 68.126083,94.068512 67.992508,97.934921 
	C67.609604,109.017822 67.294174,120.103050 66.952217,131.187363 
	C64.102226,128.307663 61.252232,125.427948 58.182922,122.300110 
z"/>
<path fill="#47CECB" opacity="1.000000" stroke="none" 
	d="
M67.085587,131.468475 
	C67.294174,120.103050 67.609604,109.017822 67.992508,97.934921 
	C68.126083,94.068512 68.688637,90.196541 68.522820,86.350060 
	C68.455215,84.781715 67.067413,83.212204 66.109978,81.755112 
	C64.934242,79.965767 63.580322,78.293503 62.123440,76.279594 
	C61.964893,75.508713 61.986332,75.028862 62.030678,74.189278 
	C65.968163,78.665489 69.882744,83.501450 73.737167,88.808846 
	C73.637108,89.616913 73.789856,89.840065 74.135246,89.949745 
	C75.051147,90.746857 75.967041,91.543968 76.997787,92.625641 
	C73.091789,93.175591 73.020905,96.129906 73.013855,99.039047 
	C72.986496,110.326141 73.022552,121.613411 72.977936,132.900391 
	C72.970810,134.702591 72.671806,136.503647 72.268654,138.638504 
	C70.426025,136.564377 68.822487,134.156982 67.085587,131.468475 
z"/>
<path fill="#48D4C3" opacity="1.000000" stroke="none" 
	d="
M74.070564,89.715424 
	C73.789856,89.840065 73.637108,89.616913 73.759476,89.151848 
	C73.841949,89.023407 74.005882,89.481102 74.070564,89.715424 
z"/>
</svg>