<?xml version="1.0" encoding="UTF-8"?>
<svg version="1.1" xmlns="http://www.w3.org/2000/svg" width="169" height="169">
<path d="M0 0 C2.4375 1.4375 2.4375 1.4375 4 3 C4.99 3.495 4.99 3.495 6 4 C6 5.66666667 6 7.33333333 6 9 C6.99 9.33 7.98 9.66 9 10 C9.495 11.485 9.495 11.485 10 13 C10.515625 13.495 11.03125 13.99 11.5625 14.5 C13 16 13 16 13 19 C13.639375 19.2475 14.27875 19.495 14.9375 19.75 C17 21 17 21 17.5625 23.0625 C17.706875 23.701875 17.85125 24.34125 18 25 C19.485 25.495 19.485 25.495 21 26 C21.495 28.475 21.495 28.475 22 31 C22.66 31 23.32 31 24 31 C24.495 31.99 24.495 31.99 25 33 C26.485 33.495 26.485 33.495 28 34 C28.70211894 35.65204456 29.36971413 37.31923769 30 39 C30.66 39.33 31.32 39.66 32 40 C33.125 42.0625 33.125 42.0625 34 44 C34.67546875 43.855625 35.3509375 43.71125 36.046875 43.5625 C36.93890625 43.376875 37.8309375 43.19125 38.75 43 C40.07257813 42.7215625 40.07257813 42.7215625 41.421875 42.4375 C44 42 44 42 48 42 C47.505 40.02 47.505 40.02 47 38 C49.64 37.67 52.28 37.34 55 37 C55 36.67 55 36.34 55 36 C56.41538717 35.66127487 57.83237963 35.32925376 59.25 35 C60.03890625 34.814375 60.8278125 34.62875 61.640625 34.4375 C64 34 64 34 68 34 C68 33.34 68 32.68 68 32 C70.97 31.67 73.94 31.34 77 31 C77 30.34 77 29.68 77 29 C79.97 28.505 79.97 28.505 83 28 C83 36.58 83 45.16 83 54 C83.66 54 84.32 54 85 54 C85 57.3 85 60.6 85 64 C84.34 64 83.68 64 83 64 C83.0628418 65.20160767 83.0628418 65.20160767 83.12695312 66.42749023 C83.29441015 70.09697185 83.39764875 73.76564874 83.5 77.4375 C83.56703125 78.69755859 83.6340625 79.95761719 83.703125 81.25585938 C83.84241281 87.92426306 83.69079987 92.09030853 79.09375 97.16015625 C78.02157227 98.14640991 78.02157227 98.14640991 76.92773438 99.15258789 C74.99331909 101.00640254 74.03496559 102.5521434 73 105 C72.34 105 71.68 105 71 105 C70.731875 105.763125 70.46375 106.52625 70.1875 107.3125 C69.03396359 109.92313504 68.01370135 111.07385089 66 113 C65.67 113.99 65.34 114.98 65 116 C64.01 116.66 63.02 117.32 62 118 C61.67 118.825 61.34 119.65 61 120.5 C60 123 60 123 57 125 C56.505 126.485 56.505 126.485 56 128 C55.34 128.33 54.68 128.66 54 129 C52.39637307 131.51002476 50.95147884 134.08693375 49.5 136.6875 C48 139 48 139 45 141 C44.835 141.66 44.67 142.32 44.5 143 C44 145 44 145 41 147 C40.67 147.99 40.34 148.98 40 150 C38.33333333 151.66666667 36.66666667 153.33333333 35 155 C35 155.66 35 156.32 35 157 C33.84778469 158.186104 32.68567111 159.36413645 31.4765625 160.4921875 C29.93484412 161.99025378 29.93484412 161.99025378 28.6484375 163.8828125 C26.65535943 166.63303755 25.16214441 168.62394962 21.86328125 169.69140625 C18.25001162 169.97973167 15.93884664 169.6579039 12.9375 167.5546875 C10.44853592 165.15905957 8.46271322 162.94237563 6.93359375 159.828125 C6.13650326 157.82109746 6.13650326 157.82109746 4 157 C3.375 154.4375 3.375 154.4375 3 152 C2.34 152 1.68 152 1 152 C1 151.34 1 150.68 1 150 C0.34 149.67 -0.32 149.34 -1 149 C-5.70927369 145.5661546 -7.32029515 143.68515486 -9 138 C-9.99 137.67 -10.98 137.34 -12 137 C-12.35412344 135.67203709 -12.68521554 134.33783393 -13 133 C-13.97850195 131.97895449 -14.97980427 130.9793879 -16 130 C-16.2475 129.29875 -16.495 128.5975 -16.75 127.875 C-17.95299556 125.60202907 -17.95299556 125.60202907 -21.375 125.25 C-23.91200627 125.07503405 -26.45696758 125 -29 125 C-29 125.66 -29 126.32 -29 127 C-33.26616316 128.13764351 -36.56486311 129 -41 129 C-41 129.99 -41 130.98 -41 132 C-42.08667969 132.29003906 -42.08667969 132.29003906 -43.1953125 132.5859375 C-49.33165164 134.23374234 -49.33165164 134.23374234 -55.375 136.1875 C-58.06475106 137.020042 -60.20265525 137.16454969 -63 137 C-63 137.66 -63 138.32 -63 139 C-64.32 139 -65.64 139 -67 139 C-67 138.34 -67 137.68 -67 137 C-67.99 136.67 -68.98 136.34 -70 136 C-70.05086743 128.59850003 -70.08580388 121.19704546 -70.10986328 113.79541016 C-70.11989737 111.2794425 -70.13352768 108.76348643 -70.15087891 106.24755859 C-70.17524097 102.62334322 -70.18650931 98.99928256 -70.1953125 95.375 C-70.20563507 94.25697998 -70.21595764 93.13895996 -70.22659302 91.98706055 C-70.22745177 85.9584153 -69.76727047 80.77267586 -68 75 C-67.34 75 -66.68 75 -66 75 C-65.22678118 72.01758453 -64.58803797 69.02419525 -64 66 C-63.39542969 65.90460938 -62.79085937 65.80921875 -62.16796875 65.7109375 C-59.5171491 64.84165971 -58.84476495 63.91614697 -57.3125 61.625 C-56.68794922 60.71621094 -56.68794922 60.71621094 -56.05078125 59.7890625 C-54.84243325 57.87360047 -54.84243325 57.87360047 -54 55 C-53.360625 54.896875 -52.72125 54.79375 -52.0625 54.6875 C-51.381875 54.460625 -50.70125 54.23375 -50 54 C-49.26919734 52.02253397 -48.60578253 50.01927511 -48 48 C-46.4375 46.3125 -46.4375 46.3125 -45 45 C-44.67 44.01 -44.34 43.02 -44 42 C-42.33333333 40.33333333 -40.66666667 38.66666667 -39 37 C-39 36.34 -39 35.68 -39 35 C-37.7151049 33.61992749 -36.36984198 32.29579647 -35 31 C-31.97222993 28.11640946 -29.75655637 25.78335218 -28 22 C-27.34 21.67 -26.68 21.34 -26 21 C-25.505 20.01 -25.01 19.02 -24.5 18 C-23 15 -23 15 -21 14 C-20.67 13.01 -20.34 12.02 -20 11 C-19.01 10.34 -18.02 9.68 -17 9 C-16.27617533 6.94074861 -16.27617533 6.94074861 -16 5 C-15.34 5 -14.68 5 -14 5 C-14 4.34 -14 3.68 -14 3 C-9.75071842 -0.56391359 -5.30185903 -0.76450027 0 0 Z M-13 61 C-13 61.99 -13 62.98 -13 64 C-14.98 64.99 -14.98 64.99 -17 66 C-16.49325789 70.43399343 -14.89488631 72.66649455 -12 76 C-11.34 76.99 -10.68 77.98 -10 79 C-9.34 79 -8.68 79 -8 79 C-7.90589844 79.57878906 -7.81179687 80.15757813 -7.71484375 80.75390625 C-6.8401035 83.50240703 -5.54419875 84.85692231 -3.5625 86.9375 C-0.86770644 89.8842458 0.60571743 92.24616231 2 96 C3.31787285 97.02028865 4.65210653 98.01971384 6 99 C7.00568242 100.66324401 8.00664799 102.32936253 9 104 C9.66 104 10.32 104 11 104 C10.67 104.99 10.34 105.98 10 107 C14.38917902 111.31307443 14.38917902 111.31307443 20 113 C22.7667506 111.79031105 22.7667506 111.79031105 25 110 C25 109.34 25 108.68 25 108 C25.66 107.67 26.32 107.34 27 107 C29.36980013 104.04622502 29.36980013 104.04622502 29 100 C29.99 99.67 30.98 99.34 32 99 C31.401875 98.401875 30.80375 97.80375 30.1875 97.1875 C29.465625 96.465625 28.74375 95.74375 28 95 C27.46375 94.525625 26.9275 94.05125 26.375 93.5625 C25 92 25 92 24.125 89.625 C22.6983832 86.29622747 20.63992791 84.44193331 18 82 C16 80 16 80 15.625 78.0625 C14.78755532 75.29893257 13.32742521 74.62214484 11 73 C9.66666667 71 8.33333333 69 7 67 C6.34 67 5.68 67 5 67 C4.89042969 66.42765625 4.78085938 65.8553125 4.66796875 65.265625 C3.46507933 61.1856492 1.0006104 57.97269774 -2 55 C-7.90601363 53.31256753 -9.94445994 56.4166899 -13 61 Z " fill="#46CFBD" transform="translate(77,0)"/>
<path d="M0 0 C0 8.25 0 16.5 0 25 C0.66 25 1.32 25 2 25 C2 28.3 2 31.6 2 35 C1.34 35 0.68 35 0 35 C0.04189453 35.80107178 0.08378906 36.60214355 0.12695312 37.42749023 C0.29441015 41.09697185 0.39764875 44.76564874 0.5 48.4375 C0.56703125 49.69755859 0.6340625 50.95761719 0.703125 52.25585938 C0.84241281 58.92426306 0.69079987 63.09030853 -3.90625 68.16015625 C-4.62103516 68.81765869 -5.33582031 69.47516113 -6.07226562 70.15258789 C-8.00668091 72.00640254 -8.96503441 73.5521434 -10 76 C-10.66 76 -11.32 76 -12 76 C-12.268125 76.763125 -12.53625 77.52625 -12.8125 78.3125 C-13.96603641 80.92313504 -14.98629865 82.07385089 -17 84 C-17.33 84.99 -17.66 85.98 -18 87 C-20.5625 88.1875 -20.5625 88.1875 -23 89 C-22.2662743 87.26573926 -21.53056317 85.53227064 -20.78125 83.8046875 C-20.21653198 82.50018888 -19.66623061 81.18941718 -19.125 79.875 C-17.4997514 77.16625233 -15.25309505 75.19532338 -13 73 C-12.505 72.01 -12.505 72.01 -12 71 C-11.34 71 -10.68 71 -10 71 C-8.47700477 68.06279492 -7.19899698 65.0831351 -6 62 C-5.34 62 -4.68 62 -4 62 C-3.67 42.53 -3.34 23.06 -3 3 C-7.68382425 4.97048521 -7.68382425 4.97048521 -12.25 7.1875 C-14 8 -14 8 -17 8 C-17.33 8.66 -17.66 9.32 -18 10 C-19.9375 9.6875 -19.9375 9.6875 -22 9 C-22.33 8.01 -22.66 7.02 -23 6 C-20.36 5.67 -17.72 5.34 -15 5 C-15 4.34 -15 3.68 -15 3 C-10.545 2.505 -10.545 2.505 -6 2 C-6 1.34 -6 0.68 -6 0 C-2.25 -1.125 -2.25 -1.125 0 0 Z " fill="#8CF4B1" transform="translate(160,29)"/>
<path d="M0 0 C0.66 0 1.32 0 2 0 C2.3813591 6.35598504 2.3813591 6.35598504 0.5065918 9.52197266 C-1.66356822 14.53187374 -1.37164677 19.1234387 -1.29296875 24.5234375 C-1.28872391 25.62475006 -1.28447906 26.72606262 -1.28010559 27.86074829 C-1.2633615 31.36575133 -1.22571614 34.87017179 -1.1875 38.375 C-1.17244769 40.75650209 -1.15876024 43.13801323 -1.14648438 45.51953125 C-1.11347193 51.34655172 -1.06331464 57.17323423 -1 63 C1.26104941 62.47162845 3.19205292 61.91175947 5.3125 60.9375 C8.63885907 59.77714219 11.5027179 59.86285168 15 60 C15 61.32 15 62.64 15 64 C6.57142857 66.28571429 6.57142857 66.28571429 2 66 C2 66.66 2 67.32 2 68 C0.68 68 -0.64 68 -2 68 C-2 67.34 -2 66.68 -2 66 C-2.99 65.67 -3.98 65.34 -5 65 C-5.05086743 57.59850003 -5.08580388 50.19704546 -5.10986328 42.79541016 C-5.11989737 40.2794425 -5.13352768 37.76348643 -5.15087891 35.24755859 C-5.17524097 31.62334322 -5.18650931 27.99928256 -5.1953125 24.375 C-5.20563507 23.25697998 -5.21595764 22.13895996 -5.22659302 20.98706055 C-5.22745177 14.9584153 -4.76727047 9.77267586 -3 4 C-2.34 4 -1.68 4 -1 4 C-0.67 2.68 -0.34 1.36 0 0 Z " fill="#A6CFFE" transform="translate(12,71)"/>
<path d="M0 0 C0 8.25 0 16.5 0 25 C0.66 25 1.32 25 2 25 C2 28.3 2 31.6 2 35 C0.68 34.67 -0.64 34.34 -2 34 C-3.02250405 27.30139078 -3.11756273 20.7684802 -3.0625 14 C-3.05798828 12.93910156 -3.05347656 11.87820312 -3.04882812 10.78515625 C-3.03713843 8.19004402 -3.02075276 5.59505291 -3 3 C-7.68577232 4.96425581 -7.68577232 4.96425581 -12.25 7.1875 C-14 8 -14 8 -17 8 C-17.33 8.66 -17.66 9.32 -18 10 C-19.9375 9.6875 -19.9375 9.6875 -22 9 C-22.33 8.01 -22.66 7.02 -23 6 C-20.36 5.67 -17.72 5.34 -15 5 C-15 4.34 -15 3.68 -15 3 C-10.545 2.505 -10.545 2.505 -6 2 C-6 1.34 -6 0.68 -6 0 C-2.25 -1.125 -2.25 -1.125 0 0 Z " fill="#84F9A3" transform="translate(160,29)"/>
<path d="M0 0 C0.66 0 1.32 0 2 0 C2.33 1.65 2.66 3.3 3 5 C3.66 5 4.32 5 5 5 C5.33 5.66 5.66 6.32 6 7 C6.99 7.33 7.98 7.66 9 8 C9.70211894 9.65204456 10.36971413 11.31923769 11 13 C11.66 13.33 12.32 13.66 13 14 C14.125 16.0625 14.125 16.0625 15 18 C15.67546875 17.855625 16.3509375 17.71125 17.046875 17.5625 C17.93890625 17.376875 18.8309375 17.19125 19.75 17 C20.63171875 16.814375 21.5134375 16.62875 22.421875 16.4375 C25 16 25 16 29 16 C28.67 14.68 28.34 13.36 28 12 C30.64 12 33.28 12 36 12 C36 12.99 36 13.98 36 15 C35.01 15 34.02 15 33 15 C33 15.66 33 16.32 33 17 C31.14375 17.680625 31.14375 17.680625 29.25 18.375 C27.01993888 19.19762744 25.04619227 19.97257334 23 21.1875 C19.72146783 22.51940369 16.51125487 22.11704183 13 22 C12.67 20.35 12.34 18.7 12 17 C11.01 17 10.02 17 9 17 C8.5978125 15.8553125 8.5978125 15.8553125 8.1875 14.6875 C7.04199033 12.09503074 6.00288478 10.91184456 4 9 C4 8.34 4 7.68 4 7 C2.68 6.67 1.36 6.34 0 6 C0 4.02 0 2.04 0 0 Z " fill="#78EDBE" transform="translate(96,26)"/>
<path d="M0 0 C1.65 0 3.3 0 5 0 C6.4783226 2.95664519 6.06032783 5.74229737 6 9 C5.01 9 4.02 9 3 9 C2.690625 10.299375 2.690625 10.299375 2.375 11.625 C0.6919065 15.75622951 -1.20063238 18.58599132 -5 21 C-8.02268548 21.69106006 -9.84063479 21.47390478 -13 21 C-13.66 20.01 -14.32 19.02 -15 18 C-14.505 16.515 -14.505 16.515 -14 15 C-13.0925 15.37125 -12.185 15.7425 -11.25 16.125 C-8.16467339 17.25131743 -8.16467339 17.25131743 -5.75 16.375 C-3.72464623 14.78365061 -2.94895925 13.37239812 -2 11 C-1.34 11 -0.68 11 0 11 C1.80441192 6.32047386 1.80441192 6.32047386 1.125 1.5625 C0.568125 0.7890625 0.568125 0.7890625 0 0 Z " fill="#5FE7BC" transform="translate(105,95)"/>
<path d="M0 0 C0.66 0 1.32 0 2 0 C2.38065232 6.34420533 2.38065232 6.34420533 0.52026367 9.54931641 C-1.61935325 14.40580358 -1.47877862 18.8331154 -1.51171875 24.0859375 C-1.52966995 25.14285797 -1.54762115 26.19977844 -1.56611633 27.28872681 C-1.62011938 30.6507778 -1.65408362 34.0126876 -1.6875 37.375 C-1.72068183 39.66017585 -1.75517229 41.9453331 -1.79101562 44.23046875 C-1.87584009 49.82018588 -1.94423229 55.40992151 -2 61 C-2.33 61 -2.66 61 -3 61 C-3.16811334 53.36464676 -3.32802473 45.72915363 -3.48217773 38.09350586 C-3.53561628 35.49483328 -3.59094704 32.89619891 -3.64819336 30.29760742 C-3.73005223 26.56697835 -3.80515196 22.83626574 -3.87890625 19.10546875 C-3.90594131 17.93976852 -3.93297638 16.7740683 -3.96083069 15.57304382 C-3.98092697 14.49214981 -4.00102325 13.4112558 -4.02172852 12.29760742 C-4.04171402 11.34496506 -4.06169952 10.39232269 -4.08229065 9.41081238 C-4 7 -4 7 -3 4 C-2.34 4 -1.68 4 -1 4 C-0.67 2.68 -0.34 1.36 0 0 Z " fill="#45A5FE" transform="translate(12,71)"/>
<path d="M0 0 C0 0.99 0 1.98 0 3 C-2.64 3.33 -5.28 3.66 -8 4 C-8 4.66 -8 5.32 -8 6 C-12.26616316 7.13764351 -15.56486311 8 -20 8 C-20 8.99 -20 9.98 -20 11 C-22.31 11.33 -24.62 11.66 -27 12 C-27 11.01 -27 10.02 -27 9 C-26.01 9 -25.02 9 -24 9 C-24 8.34 -24 7.68 -24 7 C-23.39671875 6.73445313 -22.7934375 6.46890625 -22.171875 6.1953125 C-21.37265625 5.84210938 -20.5734375 5.48890625 -19.75 5.125 C-18.96109375 4.77695313 -18.1721875 4.42890625 -17.359375 4.0703125 C-15.87027203 3.39479228 -14.39859875 2.6780261 -12.95703125 1.90625 C-8.93758406 0.04494911 -4.38017841 0 0 0 Z " fill="#5FC5E7" transform="translate(56,121)"/>
<path d="M0 0 C0.33 0.99 0.66 1.98 1 3 C0.01 3.495 0.01 3.495 -1 4 C-2.60362693 6.51002476 -4.04852116 9.08693375 -5.5 11.6875 C-7 14 -7 14 -10 16 C-10.165 16.66 -10.33 17.32 -10.5 18 C-11 20 -11 20 -14 22 C-14.33 22.99 -14.66 23.98 -15 25 C-17.0625 26.1875 -17.0625 26.1875 -19 27 C-19.33 26.34 -19.66 25.68 -20 25 C-19.22265625 23.0546875 -19.22265625 23.0546875 -18.0625 20.875 C-17.49208984 19.78832031 -17.49208984 19.78832031 -16.91015625 18.6796875 C-16.60980469 18.12539062 -16.30945313 17.57109375 -16 17 C-14.68 17 -13.36 17 -12 17 C-11.67 15.02 -11.34 13.04 -11 11 C-10.38125 10.938125 -9.7625 10.87625 -9.125 10.8125 C-6.72238859 10.171081 -6.72238859 10.171081 -5.75 7.4375 C-5.37875 6.2309375 -5.37875 6.2309375 -5 5 C-4.34 5 -3.68 5 -3 5 C-2.87625 4.360625 -2.7525 3.72125 -2.625 3.0625 C-2.315625 2.0415625 -2.315625 2.0415625 -2 1 C-1.34 0.67 -0.68 0.34 0 0 Z " fill="#B5F6D5" transform="translate(132,125)"/>
<path d="M0 0 C0.33 0 0.66 0 1 0 C1.22786458 2.05078125 1.45572917 4.1015625 1.68359375 6.15234375 C1.81886614 8.01140229 1.81886614 8.01140229 3 9 C3.08737645 10.85369611 3.10698153 12.71067541 3.09765625 14.56640625 C3.09443359 15.69111328 3.09121094 16.81582031 3.08789062 17.97460938 C3.07951172 19.15861328 3.07113281 20.34261719 3.0625 21.5625 C3.05798828 22.75037109 3.05347656 23.93824219 3.04882812 25.16210938 C3.03699675 28.10812226 3.02051287 31.05403681 3 34 C2.01 34 1.02 34 0 34 C0 22.78 0 11.56 0 0 Z " fill="#5FF688" transform="translate(157,55)"/>
<path d="M0 0 C2.5 1.375 2.5 1.375 5 3 C5 3.66 5 4.32 5 5 C5.66 5 6.32 5 7 5 C8.4606285 7.64738916 9 8.89448334 9 12 C9.66 12 10.32 12 11 12 C11.33 13.32 11.66 14.64 12 16 C12.66 16 13.32 16 14 16 C16.125 20.625 16.125 20.625 15 24 C12 22 12 22 11 18.9375 C10.67 17.968125 10.34 16.99875 10 16 C9.01 15.67 8.02 15.34 7 15 C6.64587656 13.67203709 6.31478446 12.33783393 6 11 C5.02149805 9.97895449 4.02019573 8.9793879 3 8 C2.33333333 6.66666667 1.66666667 5.33333333 1 4 C0.34 3.67 -0.32 3.34 -1 3 C-0.67 2.01 -0.34 1.02 0 0 Z " fill="#B8ECEC" transform="translate(58,122)"/>
<path d="M0 0 C1 2 1 2 0.46875 3.8828125 C-2.06605238 9.7496535 -5.223805 14.68260206 -10 19 C-10.66 19 -11.32 19 -12 19 C-12.33 19.99 -12.66 20.98 -13 22 C-14.32 21.67 -15.64 21.34 -17 21 C-16.21625 20.2575 -15.4325 19.515 -14.625 18.75 C-12.39697474 16.4158783 -11.31766516 14.83804804 -10 12 C-9.34 11.67 -8.68 11.34 -8 11 C-7.505 10.01 -7.01 9.02 -6.5 8 C-5 5 -5 5 -3 4 C-2.67 3.01 -2.34 2.02 -2 1 C-1.34 0.67 -0.68 0.34 0 0 Z " fill="#7BD3E9" transform="translate(59,10)"/>
<path d="M0 0 C0 1.32 0 2.64 0 4 C-1.010625 4.103125 -2.02125 4.20625 -3.0625 4.3125 C-6.10242198 4.84328003 -8.03682073 5.33607355 -10.75 6.5625 C-14 8 -14 8 -17 8 C-17.33 8.66 -17.66 9.32 -18 10 C-19.9375 9.6875 -19.9375 9.6875 -22 9 C-22.33 8.01 -22.66 7.02 -23 6 C-20.36 5.67 -17.72 5.34 -15 5 C-15 4.34 -15 3.68 -15 3 C-10.545 2.505 -10.545 2.505 -6 2 C-6 1.34 -6 0.68 -6 0 C-2.25 -1.125 -2.25 -1.125 0 0 Z " fill="#96F4B6" transform="translate(160,29)"/>
<path d="M0 0 C-0.72079552 6.48715969 -2.4622072 10.23311316 -7.1484375 14.78515625 C-9 16 -9 16 -13 16 C-13.33 14.68 -13.66 13.36 -14 12 C-13.39542969 11.90460938 -12.79085938 11.80921875 -12.16796875 11.7109375 C-9.5171491 10.84165971 -8.84476495 9.91614697 -7.3125 7.625 C-6.89613281 7.01914062 -6.47976562 6.41328125 -6.05078125 5.7890625 C-4.84243325 3.87360047 -4.84243325 3.87360047 -4 1 C-2 0 -2 0 0 0 Z " fill="#5DB0F9" transform="translate(27,54)"/>
<path d="M0 0 C1.32 0 2.64 0 4 0 C4 0.66 4 1.32 4 2 C3.01 2.66 2.02 3.32 1 4 C1.59337098 9.19199603 3.98545102 12.12934738 7.75 15.625 C9 17 9 17 9 20 C6.24542282 19.62005832 5.17979426 19.1926367 3.25 17.125 C2 15 2 15 2 12 C1.01 11.67 0.02 11.34 -1 11 C-2.23076923 4.6 -2.23076923 4.6 -1.0625 1.5625 C-0.711875 1.046875 -0.36125 0.53125 0 0 Z " fill="#A1E5E7" transform="translate(60,62)"/>
<path d="M0 0 C0 1.32 0 2.64 0 4 C-6.09339169 5.88341198 -10.72532201 6.0748291 -17 5 C-16.67 4.34 -16.34 3.68 -16 3 C-14.67851173 2.62243192 -13.34164079 2.2981424 -12 2 C-11.236875 1.649375 -10.47375 1.29875 -9.6875 0.9375 C-6.36114093 -0.22285781 -3.4972821 -0.13714832 0 0 Z " fill="#43A7FA" transform="translate(27,131)"/>
<path d="M0 0 C1.875 0.25 1.875 0.25 4 1 C5.25 3.0625 5.25 3.0625 6 5 C6.66 5 7.32 5 8 5 C9.4606285 7.64738916 10 8.89448334 10 12 C11.32 12 12.64 12 14 12 C14 12.99 14 13.98 14 15 C9.29972514 14.15557833 6.99857635 11.54861106 4 8 C3.29114106 6.68861096 2.60543548 5.36222983 2 4 C1.34 3.67 0.68 3.34 0 3 C0 2.01 0 1.02 0 0 Z " fill="#B3F0E0" transform="translate(81,154)"/>
<path d="M0 0 C1.65 0 3.3 0 5 0 C6.4783226 2.95664519 6.06032783 5.74229737 6 9 C5.01 9 4.02 9 3 9 C2.67 10.32 2.34 11.64 2 13 C0.68 12.67 -0.64 12.34 -2 12 C-1.34 11.67 -0.68 11.34 0 11 C1.87027136 6.33557724 1.87027136 6.33557724 1.125 1.5625 C0.568125 0.7890625 0.568125 0.7890625 0 0 Z " fill="#BCF4DF" transform="translate(105,95)"/>
<path d="M0 0 C0.99 0.33 1.98 0.66 3 1 C3 3 3 3 0.875 5.1875 C0.42253906 5.61804688 -0.02992187 6.04859375 -0.49609375 6.4921875 C-2.72862896 8.7305215 -4.68231627 11.1873518 -6.66796875 13.64453125 C-7.10753906 14.09183594 -7.54710938 14.53914062 -8 15 C-8.66 15 -9.32 15 -10 15 C-9.6875 12.625 -9.6875 12.625 -9 10 C-8.01 9.34 -7.02 8.68 -6 8 C-5.505 7.01 -5.01 6.02 -4.5 5 C-3 2 -3 2 0 0 Z " fill="#A9F4D7" transform="translate(109,154)"/>
<path d="M0 0 C0.66 0 1.32 0 2 0 C2.33 1.65 2.66 3.3 3 5 C3.66 5 4.32 5 5 5 C5.33 5.66 5.66 6.32 6 7 C6.99 7.33 7.98 7.66 9 8 C9.70211894 9.65204456 10.36971413 11.31923769 11 13 C11.66 13.33 12.32 13.66 13 14 C13 14.66 13 15.32 13 16 C11.35 15.67 9.7 15.34 8 15 C7.67 14.01 7.34 13.02 7 12 C6.484375 11.484375 5.96875 10.96875 5.4375 10.4375 C4.963125 9.963125 4.48875 9.48875 4 9 C4 8.34 4 7.68 4 7 C2.68 6.67 1.36 6.34 0 6 C0 4.02 0 2.04 0 0 Z " fill="#BBF6E0" transform="translate(96,26)"/>
<path d="M0 0 C0.66 0 1.32 0 2 0 C2.31563182 5.26053037 1.66590937 8.44573816 -1 13 C-1.99 12.67 -2.98 12.34 -4 12 C-3.67 9.36 -3.34 6.72 -3 4 C-2.34 4 -1.68 4 -1 4 C-0.67 2.68 -0.34 1.36 0 0 Z " fill="#4DA7FD" transform="translate(12,71)"/>
<path d="M0 0 C1.258125 -0.04125 2.51625 -0.0825 3.8125 -0.125 C4.52019531 -0.14820313 5.22789063 -0.17140625 5.95703125 -0.1953125 C8 0 8 0 11 2 C11 2.99 11 3.98 11 5 C11.66 5 12.32 5 13 5 C13 6.65 13 8.3 13 10 C10 8 10 8 8.6875 5.4375 C7.16673359 2.67128948 7.16673359 2.67128948 3.8125 2.1875 C2.4203125 2.0946875 2.4203125 2.0946875 1 2 C0.34 3.32 -0.32 4.64 -1 6 C-1.33 5.34 -1.66 4.68 -2 4 C-1.0625 1.875 -1.0625 1.875 0 0 Z " fill="#82E6D7" transform="translate(68,53)"/>
<path d="M0 0 C1.32 0 2.64 0 4 0 C3.125 4.75 3.125 4.75 2 7 C-2.5 10 -2.5 10 -5 10 C-4.42437172 6.66135596 -3.40936384 5.30897368 -1 3 C-0.67 2.01 -0.34 1.02 0 0 Z " fill="#8BCFF6" transform="translate(33,42)"/>
<path d="M0 0 C-3.08809695 1.76462683 -4.23312136 2 -8 2 C-8 2.99 -8 3.98 -8 5 C-10.31 5.33 -12.62 5.66 -15 6 C-15 5.01 -15 4.02 -15 3 C-14.01 3 -13.02 3 -12 3 C-12 2.34 -12 1.68 -12 1 C-3.96428571 -1.27678571 -3.96428571 -1.27678571 0 0 Z " fill="#A0D9F6" transform="translate(44,127)"/>
<path d="M0 0 C3.56527647 2.67395735 6.45499893 5.32388734 9 9 C9 9.99 9 10.98 9 12 C7.68 11.67 6.36 11.34 5 11 C4.67 9.68 4.34 8.36 4 7 C3.34 7 2.68 7 2 7 C2 6.01 2 5.02 2 4 C1.01 3.67 0.02 3.34 -1 3 C-0.67 2.01 -0.34 1.02 0 0 Z " fill="#92E7DF" transform="translate(69,82)"/>
<path d="M0 0 C0.33 0.66 0.66 1.32 1 2 C1.99 2.33 2.98 2.66 4 3 C4.33 3.99 4.66 4.98 5 6 C5.515625 6.495 6.03125 6.99 6.5625 7.5 C8 9 8 9 8 12 C6.0625 11.25 6.0625 11.25 4 10 C3.25 7.875 3.25 7.875 3 6 C2.34 6 1.68 6 1 6 C1 5.34 1 4.68 1 4 C0.34 4 -0.32 4 -1 4 C-1.33 3.01 -1.66 2.02 -2 1 C-1.34 0.67 -0.68 0.34 0 0 Z " fill="#98EDDA" transform="translate(82,7)"/>
<path d="M0 0 C1.32 0.33 2.64 0.66 4 1 C4.144375 1.598125 4.28875 2.19625 4.4375 2.8125 C4.8872439 4.56150404 5.42892341 6.28677023 6 8 C6.66 8 7.32 8 8 8 C8 8.66 8 9.32 8 10 C6.35 9.67 4.7 9.34 3 9 C2.67 7.68 2.34 6.36 2 5 C1.34 5 0.68 5 0 5 C0 3.35 0 1.7 0 0 Z " fill="#9DEFDE" transform="translate(80,96)"/>
<path d="M0 0 C0.99 0 1.98 0 3 0 C3 0.66 3 1.32 3 2 C3.99 2.33 4.98 2.66 6 3 C6 3.66 6 4.32 6 5 C6.66 5 7.32 5 8 5 C8.33 7.31 8.66 9.62 9 12 C8.67 11.34 8.34 10.68 8 10 C7.01 9.67 6.02 9.34 5 9 C4.855625 8.38125 4.71125 7.7625 4.5625 7.125 C3.81268871 4.29237955 2.33014162 3.65364889 0 2 C0 1.34 0 0.68 0 0 Z " fill="#A4EED9" transform="translate(96,83)"/>
<path d="M0 0 C2.64 0 5.28 0 8 0 C8 0.99 8 1.98 8 3 C7.01 3 6.02 3 5 3 C5 3.66 5 4.32 5 5 C2.36 5.33 -0.28 5.66 -3 6 C-3 5.34 -3 4.68 -3 4 C-1.68 4 -0.36 4 1 4 C0.67 2.68 0.34 1.36 0 0 Z " fill="#A1EDC9" transform="translate(124,38)"/>
<path d="M0 0 C2.475 0.495 2.475 0.495 5 1 C5.33 2.32 5.66 3.64 6 5 C6.66 5 7.32 5 8 5 C8.33 6.65 8.66 8.3 9 10 C6.625 9.3125 6.625 9.3125 4 8 C2.8125 5.4375 2.8125 5.4375 2 3 C1.34 2.67 0.68 2.34 0 2 C0 1.34 0 0.68 0 0 Z " fill="#A6F2DB" transform="translate(82,65)"/>
<path d="M0 0 C0.66 0 1.32 0 2 0 C1.64766839 5.4611399 1.64766839 5.4611399 1 8 C-1.0625 9.5 -1.0625 9.5 -3 10 C-3.33 9.34 -3.66 8.68 -4 8 C-3.22265625 6.0546875 -3.22265625 6.0546875 -2.0625 3.875 C-1.49208984 2.78832031 -1.49208984 2.78832031 -0.91015625 1.6796875 C-0.60980469 1.12539062 -0.30945313 0.57109375 0 0 Z " fill="#92F1C8" transform="translate(116,142)"/>
<path d="M0 0 C1 2 1 2 -0.125 5.5625 C-2 9 -2 9 -4.6875 9.9375 C-5.450625 9.958125 -6.21375 9.97875 -7 10 C-5.25 5.125 -5.25 5.125 -3 4 C-2.67 3.01 -2.34 2.02 -2 1 C-1.34 0.67 -0.68 0.34 0 0 Z " fill="#96DCEB" transform="translate(59,10)"/>
<path d="M0 0 C1.32 0 2.64 0 4 0 C4 0.66 4 1.32 4 2 C3.01 2.66 2.02 3.32 1 4 C1.20625 4.94875 1.4125 5.8975 1.625 6.875 C1.74875 7.90625 1.8725 8.9375 2 10 C1.34 10.66 0.68 11.32 0 12 C-1.95143115 9.13024831 -1.98930952 7.87385237 -1.6875 4.3125 C-1 1 -1 1 0 0 Z " fill="#8BDDE5" transform="translate(60,62)"/>
<path d="M0 0 C-0.33 1.32 -0.66 2.64 -1 4 C-1.66 4 -2.32 4 -3 4 C-3.0825 4.61875 -3.165 5.2375 -3.25 5.875 C-4 8 -4 8 -6.0625 9.25 C-6.701875 9.4975 -7.34125 9.745 -8 10 C-4.11111111 0 -4.11111111 0 0 0 Z " fill="#B1DBFB" transform="translate(27,54)"/>
<path d="M0 0 C0 2 0 2 -2.25 4.5625 C-4.73730791 6.76715929 -5.79635595 7.64403955 -9 8 C-9 7.01 -9 6.02 -9 5 C-8.34 5 -7.68 5 -7 5 C-7 4.34 -7 3.68 -7 3 C-2.61538462 0 -2.61538462 0 0 0 Z " fill="#A1E6E7" transform="translate(70,0)"/>
<path d="M0 0 C1.32 0 2.64 0 4 0 C3.42655063 2.86724686 3.1385485 3.8614515 1 6 C-0.32 6 -1.64 6 -3 6 C-2.67 4.68 -2.34 3.36 -2 2 C-1.34 2 -0.68 2 0 2 C0 1.34 0 0.68 0 0 Z " fill="#83F6A4" transform="translate(156,89)"/>
<path d="M0 0 C1.875 0.25 1.875 0.25 4 1 C5.25 3.0625 5.25 3.0625 6 5 C6.66 5 7.32 5 8 5 C8.33 5.99 8.66 6.98 9 8 C8.34 8 7.68 8 7 8 C7 7.34 7 6.68 7 6 C6.401875 5.87625 5.80375 5.7525 5.1875 5.625 C3 5 3 5 0 3 C0 2.01 0 1.02 0 0 Z " fill="#87E9D1" transform="translate(81,154)"/>
<path d="M0 0 C1.65 0 3.3 0 5 0 C6.4783226 2.95664519 6.06032783 5.74229737 6 9 C4 6 4 6 4 4 C2.68 3.34 1.36 2.68 0 2 C0 1.34 0 0.68 0 0 Z " fill="#88EFC6" transform="translate(105,95)"/>
<path d="M0 0 C1.32 0.33 2.64 0.66 4 1 C3.67 1.99 3.34 2.98 3 4 C0.69 4.33 -1.62 4.66 -4 5 C-4 4.01 -4 3.02 -4 2 C-2.68 2 -1.36 2 0 2 C0 1.34 0 0.68 0 0 Z " fill="#9DD6FA" transform="translate(24,131)"/>
<path d="M0 0 C4.455 0.99 4.455 0.99 9 2 C9 2.99 9 3.98 9 5 C3.375 5.25 3.375 5.25 0 3 C0 2.01 0 1.02 0 0 Z " fill="#C1F5E7" transform="translate(90,110)"/>
<path d="M0 0 C2.5 1.375 2.5 1.375 5 3 C5 3.66 5 4.32 5 5 C5.66 5 6.32 5 7 5 C6.67 5.99 6.34 6.98 6 8 C6 7.34 6 6.68 6 6 C4.68 6 3.36 6 2 6 C0.25 4.5 0.25 4.5 -1 3 C-0.67 2.01 -0.34 1.02 0 0 Z " fill="#7BDAE0" transform="translate(58,122)"/>
<path d="M0 0 C2.97 0.33 5.94 0.66 9 1 C8.67 2.32 8.34 3.64 8 5 C6.68 5 5.36 5 4 5 C4 4.01 4 3.02 4 2 C2.68 2 1.36 2 0 2 C0 1.34 0 0.68 0 0 Z " fill="#5AE4B9" transform="translate(91,164)"/>
<path d="M0 0 C0.66 0 1.32 0 2 0 C2.33 1.65 2.66 3.3 3 5 C3.66 5 4.32 5 5 5 C4.67 6.32 4.34 7.64 4 9 C4 8.34 4 7.68 4 7 C2.68 6.67 1.36 6.34 0 6 C0 4.02 0 2.04 0 0 Z " fill="#9CF0D3" transform="translate(96,26)"/>
<path d="M0 0 C1.98 0 3.96 0 6 0 C5.67 0.99 5.34 1.98 5 3 C3.68 2.67 2.36 2.34 1 2 C0.34 3.32 -0.32 4.64 -1 6 C-1.33 5.34 -1.66 4.68 -2 4 C-1.0625 1.875 -1.0625 1.875 0 0 Z " fill="#C1F1EF" transform="translate(68,53)"/>
<path d="M0 0 C0 0.99 0 1.98 0 3 C-2.31 3.33 -4.62 3.66 -7 4 C-7 3.01 -7 2.02 -7 1 C-4.50935112 0.31292445 -2.62113708 0 0 0 Z " fill="#9ADDED" transform="translate(56,121)"/>
<path d="M0 0 C0 0.66 0 1.32 0 2 C-3.08809695 3.76462683 -4.23312136 4 -8 4 C-8 3.01 -8 2.02 -8 1 C-5.23735711 0.40267181 -2.83967231 0 0 0 Z " fill="#C8F7E3" transform="translate(119,43)"/>
<path d="M0 0 C0 1.32 0 2.64 0 4 C-2.97 3.505 -2.97 3.505 -6 3 C-6 2.01 -6 1.02 -6 0 C-2.25 -1.125 -2.25 -1.125 0 0 Z " fill="#B4FADB" transform="translate(160,29)"/>
<path d="M0 0 C0 1.65 0 3.3 0 5 C-1.32 5.33 -2.64 5.66 -4 6 C-4.33 5.01 -4.66 4.02 -5 3 C-1.125 0 -1.125 0 0 0 Z " fill="#8CDAF1" transform="translate(43,32)"/>
<path d="M0 0 C0.99 0 1.98 0 3 0 C2.67 1.32 2.34 2.64 2 4 C0.68 4.33 -0.64 4.66 -2 5 C-1.125 1.125 -1.125 1.125 0 0 Z " fill="#A8F6CA" transform="translate(135,119)"/>
<path d="M0 0 C-1.33332095 3.99996286 -3.4957827 4.83782337 -7 7 C-7 5.68 -7 4.36 -7 3 C-2.92857143 0 -2.92857143 0 0 0 Z " fill="#4EB5F2" transform="translate(34,49)"/>
<path d="M0 0 C-1.65 1.65 -3.3 3.3 -5 5 C-5.99 4.34 -6.98 3.68 -8 3 C-5.53387212 -0.1151089 -3.89156016 -0.31553191 0 0 Z " fill="#59B7DF" transform="translate(43,38)"/>
<path d="M0 0 C0.99 0 1.98 0 3 0 C2 2 1 4 0 6 C-0.66 6 -1.32 6 -2 6 C-1.125 1.125 -1.125 1.125 0 0 Z " fill="#8CF0CE" transform="translate(101,163)"/>
<path d="M0 0 C1.7074998 1.28062485 3.37373596 2.61767557 5 4 C5 4.66 5 5.32 5 6 C4.01 6 3.02 6 2 6 C2 5.34 2 4.68 2 4 C1.01 3.67 0.02 3.34 -1 3 C-0.67 2.01 -0.34 1.02 0 0 Z " fill="#A6EAE6" transform="translate(69,82)"/>
<path d="M0 0 C0.66 0 1.32 0 2 0 C2 1.32 2 2.64 2 4 C1.34 4 0.68 4 0 4 C0 4.66 0 5.32 0 6 C-0.99 6 -1.98 6 -3 6 C-3 5.34 -3 4.68 -3 4 C-2.34 4 -1.68 4 -1 4 C-0.67 2.68 -0.34 1.36 0 0 Z " fill="#A3D0FE" transform="translate(12,71)"/>
<path d="M0 0 C0.33 0.66 0.66 1.32 1 2 C0.0625 4.125 0.0625 4.125 -1 6 C-1.99 5.67 -2.98 5.34 -4 5 C-2.25 1.125 -2.25 1.125 0 0 Z " fill="#79DADE" transform="translate(66,55)"/>
<path d="M0 0 C1.65 0.33 3.3 0.66 5 1 C2.37801226 3.15377564 0.35595828 4.40072174 -3 5 C-3 4.01 -3 3.02 -3 2 C-2.01 2 -1.02 2 0 2 C0 1.34 0 0.68 0 0 Z " fill="#65EBAD" transform="translate(119,43)"/>
<path d="" fill="#000000" transform="translate(0,0)"/>
<path d="" fill="#00FFFF" transform="translate(0,0)"/>
<path d="" fill="#FFFFFF" transform="translate(0,0)"/>
<path d="" fill="#000000" transform="translate(0,0)"/>
<path d="" fill="#00FF00" transform="translate(0,0)"/>
<path d="" fill="#00FFFF" transform="translate(0,0)"/>
<path d="" fill="#FFFFFF" transform="translate(0,0)"/>
<path d="" fill="#00FFFF" transform="translate(0,0)"/>
<path d="" fill="#FFFFFF" transform="translate(0,0)"/>
<path d="" fill="#FFFFFF" transform="translate(0,0)"/>
<path d="" fill="#FFFFFF" transform="translate(0,0)"/>
<path d="" fill="#FFFFFF" transform="translate(0,0)"/>
<path d="" fill="#FFFFFF" transform="translate(0,0)"/>
<path d="" fill="#FFFFFF" transform="translate(0,0)"/>
<path d="" fill="#00FFFF" transform="translate(0,0)"/>
<path d="" fill="#000000" transform="translate(0,0)"/>
<path d="" fill="#0000FF" transform="translate(0,0)"/>
<path d="" fill="#FFFFFF" transform="translate(0,0)"/>
<path d="" fill="#FFFFFF" transform="translate(0,0)"/>
<path d="" fill="#FFFFFF" transform="translate(0,0)"/>
<path d="" fill="#00FFFF" transform="translate(0,0)"/>
<path d="" fill="#FFFFFF" transform="translate(0,0)"/>
<path d="" fill="#FFFFFF" transform="translate(0,0)"/>
<path d="" fill="#FFFFFF" transform="translate(0,0)"/>
<path d="" fill="#FFFFFF" transform="translate(0,0)"/>
<path d="" fill="#00FF00" transform="translate(0,0)"/>
<path d="" fill="#0000FF" transform="translate(0,0)"/>
<path d="" fill="#00FF00" transform="translate(0,0)"/>
<path d="" fill="#00FFFF" transform="translate(0,0)"/>
<path d="" fill="#FFFFFF" transform="translate(0,0)"/>
<path d="" fill="#FFFFFF" transform="translate(0,0)"/>
<path d="" fill="#FFFFFF" transform="translate(0,0)"/>
<path d="" fill="#FFFFFF" transform="translate(0,0)"/>
<path d="" fill="#00FF00" transform="translate(0,0)"/>
<path d="" fill="#00FF00" transform="translate(0,0)"/>
<path d="" fill="#00FFFF" transform="translate(0,0)"/>
<path d="" fill="#FFFFFF" transform="translate(0,0)"/>
<path d="" fill="#000000" transform="translate(0,0)"/>
<path d="" fill="#00FF00" transform="translate(0,0)"/>
<path d="" fill="#00FF00" transform="translate(0,0)"/>
<path d="" fill="#FFFFFF" transform="translate(0,0)"/>
<path d="" fill="#00FFFF" transform="translate(0,0)"/>
<path d="" fill="#00FFFF" transform="translate(0,0)"/>
<path d="" fill="#00FF00" transform="translate(0,0)"/>
<path d="" fill="#00FFFF" transform="translate(0,0)"/>
<path d="" fill="#FFFFFF" transform="translate(0,0)"/>
<path d="" fill="#FFFFFF" transform="translate(0,0)"/>
<path d="" fill="#FFFFFF" transform="translate(0,0)"/>
<path d="" fill="#FFFFFF" transform="translate(0,0)"/>
<path d="" fill="#FFFFFF" transform="translate(0,0)"/>
<path d="" fill="#00FFFF" transform="translate(0,0)"/>
<path d="" fill="#FFFFFF" transform="translate(0,0)"/>
<path d="" fill="#FFFFFF" transform="translate(0,0)"/>
<path d="" fill="#FFFFFF" transform="translate(0,0)"/>
<path d="" fill="#FFFFFF" transform="translate(0,0)"/>
<path d="" fill="#000000" transform="translate(0,0)"/>
<path d="" fill="#FFFFFF" transform="translate(0,0)"/>
<path d="" fill="#00FFFF" transform="translate(0,0)"/>
<path d="" fill="#00FFFF" transform="translate(0,0)"/>
<path d="" fill="#00FFFF" transform="translate(0,0)"/>
<path d="" fill="#FFFFFF" transform="translate(0,0)"/>
<path d="" fill="#00FFFF" transform="translate(0,0)"/>
<path d="" fill="#00FFFF" transform="translate(0,0)"/>
<path d="" fill="#FFFFFF" transform="translate(0,0)"/>
<path d="" fill="#00FF00" transform="translate(0,0)"/>
<path d="" fill="#FFFFFF" transform="translate(0,0)"/>
<path d="" fill="#FFFFFF" transform="translate(0,0)"/>
<path d="" fill="#FFFFFF" transform="translate(0,0)"/>
<path d="" fill="#00FF00" transform="translate(0,0)"/>
<path d="" fill="#FFFFFF" transform="translate(0,0)"/>
<path d="" fill="#00FF00" transform="translate(0,0)"/>
<path d="" fill="#0000FF" transform="translate(0,0)"/>
<path d="" fill="#FFFFFF" transform="translate(0,0)"/>
<path d="" fill="#00FFFF" transform="translate(0,0)"/>
<path d="" fill="#00FFFF" transform="translate(0,0)"/>
<path d="" fill="#00FFFF" transform="translate(0,0)"/>
<path d="" fill="#FFFFFF" transform="translate(0,0)"/>
<path d="" fill="#FFFFFF" transform="translate(0,0)"/>
<path d="" fill="#FFFFFF" transform="translate(0,0)"/>
<path d="" fill="#FFFFFF" transform="translate(0,0)"/>
<path d="" fill="#FFFFFF" transform="translate(0,0)"/>
<path d="" fill="#0000FF" transform="translate(0,0)"/>
<path d="" fill="#0000FF" transform="translate(0,0)"/>
<path d="" fill="#000000" transform="translate(0,0)"/>
<path d="" fill="#FFFFFF" transform="translate(0,0)"/>
<path d="" fill="#FFFFFF" transform="translate(0,0)"/>
<path d="" fill="#00FFFF" transform="translate(0,0)"/>
<path d="" fill="#00FFFF" transform="translate(0,0)"/>
<path d="" fill="#FFFFFF" transform="translate(0,0)"/>
<path d="" fill="#000000" transform="translate(0,0)"/>
<path d="" fill="#00FFFF" transform="translate(0,0)"/>
<path d="" fill="#00FFFF" transform="translate(0,0)"/>
<path d="" fill="#FFFFFF" transform="translate(0,0)"/>
<path d="" fill="#0000FF" transform="translate(0,0)"/>
<path d="" fill="#000000" transform="translate(0,0)"/>
<path d="" fill="#000000" transform="translate(0,0)"/>
<path d="" fill="#00FFFF" transform="translate(0,0)"/>
<path d="" fill="#FFFFFF" transform="translate(0,0)"/>
<path d="" fill="#00FFFF" transform="translate(0,0)"/>
</svg>
